<?xml version="1.0" encoding="UTF-8"?>
<svg width="700pt" height="700pt" version="1.1" viewBox="0 0 700 700" xmlns="http://www.w3.org/2000/svg" xmlns:xlink="http://www.w3.org/1999/xlink">
 <defs>
  <symbol id="t" overflow="visible">
   <path d="m3.6562-0.21875c-0.1875 0.09375-0.38672 0.16797-0.59375 0.21875-0.19922 0.050781-0.40625 0.078125-0.625 0.078125-0.66797 0-1.1992-0.17969-1.5938-0.54688-0.38672-0.375-0.57812-0.87891-0.57812-1.5156 0-0.64453 0.19141-1.1484 0.57812-1.5156 0.39453-0.375 0.92578-0.5625 1.5938-0.5625 0.21875 0 0.42578 0.027344 0.625 0.078125 0.20703 0.054687 0.40625 0.125 0.59375 0.21875v0.82812c-0.1875-0.125-0.375-0.21875-0.5625-0.28125-0.17969-0.0625-0.37109-0.09375-0.57812-0.09375-0.36719 0-0.65625 0.12109-0.875 0.35938-0.21094 0.23047-0.3125 0.55469-0.3125 0.96875 0 0.40625 0.10156 0.73047 0.3125 0.96875 0.21875 0.23047 0.50781 0.34375 0.875 0.34375 0.20703 0 0.39844-0.023437 0.57812-0.078125 0.1875-0.0625 0.375-0.16016 0.5625-0.29688z"/>
  </symbol>
  <symbol id="c" overflow="visible">
   <path d="m2.6875-2.1719c-0.085938-0.039063-0.16797-0.070313-0.25-0.09375-0.085938-0.019531-0.16797-0.03125-0.25-0.03125-0.25 0-0.44531 0.085937-0.57812 0.25-0.125 0.15625-0.1875 0.38281-0.1875 0.67188v1.375h-0.96875v-2.9844h0.96875v0.48438c0.11328-0.19531 0.25-0.33594 0.40625-0.42188 0.16406-0.09375 0.35938-0.14062 0.57812-0.14062h0.10938c0.039063 0 0.09375 0.007812 0.15625 0.015625z"/>
  </symbol>
  <symbol id="b" overflow="visible">
   <path d="m3.4375-1.5v0.26562h-2.2344c0.03125 0.23047 0.11328 0.40234 0.25 0.51562 0.13281 0.10547 0.32812 0.15625 0.57812 0.15625 0.20703 0 0.41406-0.023438 0.625-0.078125 0.20703-0.0625 0.42188-0.15625 0.64062-0.28125v0.73438c-0.21875 0.09375-0.44531 0.16406-0.67188 0.20312-0.23047 0.039062-0.45312 0.0625-0.67188 0.0625-0.54297 0-0.96484-0.13281-1.2656-0.40625-0.30469-0.28125-0.45312-0.67188-0.45312-1.1719 0-0.47656 0.14453-0.85938 0.4375-1.1406 0.30078-0.28125 0.70703-0.42188 1.2188-0.42188 0.46875 0 0.84375 0.14062 1.125 0.42188s0.42188 0.66406 0.42188 1.1406zm-0.96875-0.32812c0-0.17578-0.058594-0.31641-0.17188-0.42188-0.10547-0.11328-0.24219-0.17188-0.40625-0.17188-0.1875 0-0.33984 0.054687-0.45312 0.15625-0.11719 0.10547-0.1875 0.25-0.21875 0.4375z"/>
  </symbol>
  <symbol id="d" overflow="visible">
   <path d="m1.7969-1.3438c-0.19922 0-0.35156 0.039062-0.45312 0.10938-0.09375 0.0625-0.14062 0.16406-0.14062 0.29688 0 0.11719 0.035156 0.21094 0.10938 0.28125 0.082031 0.0625 0.19531 0.09375 0.34375 0.09375 0.17578 0 0.32812-0.0625 0.45312-0.1875s0.1875-0.28516 0.1875-0.48438v-0.10938zm1.4688-0.35938v1.7031h-0.96875v-0.4375c-0.125 0.17969-0.27344 0.30859-0.4375 0.39062-0.15625 0.082031-0.35156 0.125-0.57812 0.125-0.3125 0-0.57031-0.085938-0.76562-0.26562-0.1875-0.1875-0.28125-0.42188-0.28125-0.70312 0-0.35156 0.11719-0.61328 0.35938-0.78125 0.23828-0.16406 0.61719-0.25 1.1406-0.25h0.5625v-0.0625c0-0.15625-0.0625-0.26562-0.1875-0.32812-0.11719-0.070312-0.29688-0.10938-0.54688-0.10938-0.21094 0-0.40234 0.023437-0.57812 0.0625-0.17969 0.042969-0.33984 0.10156-0.48438 0.17188v-0.71875c0.19531-0.050781 0.39844-0.085938 0.60938-0.10938 0.20703-0.03125 0.41406-0.046875 0.625-0.046875 0.53906 0 0.92969 0.10938 1.1719 0.32812 0.23828 0.21094 0.35938 0.55469 0.35938 1.0312z"/>
  </symbol>
  <symbol id="a" overflow="visible">
   <path d="m1.5-3.8438v0.85938h0.98438v0.67188h-0.98438v1.2812c0 0.13672 0.023438 0.23047 0.078125 0.28125 0.0625 0.042969 0.17578 0.0625 0.34375 0.0625h0.48438v0.6875h-0.8125c-0.38672 0-0.65625-0.078125-0.8125-0.23438s-0.23438-0.42188-0.23438-0.79688v-1.2812h-0.46875v-0.67188h0.46875v-0.85938z"/>
  </symbol>
  <symbol id="i" overflow="visible">
   <path d="m2.5-2.5469v-1.6094h0.95312v4.1562h-0.95312v-0.4375c-0.13672 0.17969-0.28125 0.30859-0.4375 0.39062-0.15625 0.082031-0.33984 0.125-0.54688 0.125-0.375 0-0.68359-0.14453-0.92188-0.4375-0.23047-0.28906-0.34375-0.67188-0.34375-1.1406 0-0.45703 0.11328-0.83203 0.34375-1.125 0.23828-0.28906 0.54688-0.4375 0.92188-0.4375 0.19531 0 0.375 0.042969 0.53125 0.125 0.16406 0.085938 0.31641 0.21484 0.45312 0.39062zm-0.64062 1.9375c0.20703 0 0.36328-0.070313 0.46875-0.21875 0.11328-0.15625 0.17188-0.37891 0.17188-0.67188 0-0.28125-0.058594-0.49219-0.17188-0.64062-0.10547-0.15625-0.26172-0.23438-0.46875-0.23438-0.19922 0-0.35547 0.078125-0.46875 0.23438-0.10547 0.14844-0.15625 0.35938-0.15625 0.64062 0 0.29297 0.050781 0.51562 0.15625 0.67188 0.11328 0.14844 0.26953 0.21875 0.46875 0.21875z"/>
  </symbol>
  <symbol id="h" overflow="visible">
   <path d="m2.0469-0.60938c0.20703 0 0.36328-0.070313 0.46875-0.21875 0.11328-0.15625 0.17188-0.37891 0.17188-0.67188 0-0.28125-0.058594-0.49219-0.17188-0.64062-0.10547-0.15625-0.26172-0.23438-0.46875-0.23438-0.19922 0-0.35547 0.078125-0.46875 0.23438-0.10547 0.14844-0.15625 0.35938-0.15625 0.64062 0 0.29297 0.050781 0.51562 0.15625 0.67188 0.11328 0.14844 0.26953 0.21875 0.46875 0.21875zm-0.625-1.9375c0.125-0.17578 0.26562-0.30469 0.42188-0.39062 0.16406-0.082031 0.35156-0.125 0.5625-0.125 0.36328 0 0.66406 0.14844 0.90625 0.4375 0.23828 0.29297 0.35938 0.66797 0.35938 1.125 0 0.46875-0.12109 0.85156-0.35938 1.1406-0.24219 0.29297-0.54297 0.4375-0.90625 0.4375-0.21094 0-0.39844-0.042969-0.5625-0.125-0.15625-0.082031-0.29688-0.21094-0.42188-0.39062v0.4375h-0.96875v-4.1562h0.96875z"/>
  </symbol>
  <symbol id="g" overflow="visible">
   <path d="m0.0625-2.9844h0.95312l0.8125 2.0156 0.6875-2.0156h0.95312l-1.2656 3.2656c-0.125 0.33203-0.27344 0.56641-0.4375 0.70312-0.16797 0.13281-0.39062 0.20312-0.67188 0.20312h-0.54688v-0.64062h0.29688c0.16406 0 0.28516-0.027344 0.35938-0.078125 0.070313-0.054688 0.12891-0.14062 0.17188-0.26562l0.03125-0.09375z"/>
  </symbol>
  <symbol id="f" overflow="visible">
   <path d="m0.5-3.9844h2.7812v0.78125h-1.75v0.73438h1.6406v0.78125h-1.6406v1.6875h-1.0312z"/>
  </symbol>
  <symbol id="s" overflow="visible">
   <path d="m0.45312-4.1562h0.96875v4.1562h-0.96875z"/>
  </symbol>
  <symbol id="r" overflow="visible">
   <path d="m2.4219-4.1562v0.625h-0.51562c-0.13672 0-0.23438 0.027344-0.29688 0.078125-0.054687 0.054687-0.078125 0.13672-0.078125 0.25v0.21875h0.82812v0.67188h-0.82812v2.3125h-0.95312v-2.3125h-0.46875v-0.67188h0.46875v-0.21875c0-0.32031 0.085937-0.5625 0.26562-0.71875 0.1875-0.15625 0.47266-0.23438 0.85938-0.23438z"/>
  </symbol>
  <symbol id="e" overflow="visible">
   <path d="m1.875-2.375c-0.21094 0-0.37109 0.078125-0.48438 0.23438-0.10547 0.14844-0.15625 0.35938-0.15625 0.64062 0 0.29297 0.050781 0.51562 0.15625 0.67188 0.11328 0.14844 0.27344 0.21875 0.48438 0.21875 0.20703 0 0.36719-0.070313 0.48438-0.21875 0.11328-0.15625 0.17188-0.37891 0.17188-0.67188 0-0.28125-0.058594-0.49219-0.17188-0.64062-0.11719-0.15625-0.27734-0.23438-0.48438-0.23438zm0-0.6875c0.51953 0 0.92188 0.14062 1.2031 0.42188 0.28906 0.27344 0.4375 0.65234 0.4375 1.1406 0 0.5-0.14844 0.89062-0.4375 1.1719-0.28125 0.27344-0.68359 0.40625-1.2031 0.40625-0.51172 0-0.91406-0.13281-1.2031-0.40625-0.29297-0.28125-0.4375-0.67188-0.4375-1.1719 0-0.48828 0.14453-0.86719 0.4375-1.1406 0.28906-0.28125 0.69141-0.42188 1.2031-0.42188z"/>
  </symbol>
  <symbol id="q" overflow="visible">
   <path d="m3.2344-2.5c0.11328-0.17578 0.25391-0.3125 0.42188-0.40625 0.16406-0.10156 0.35156-0.15625 0.5625-0.15625 0.33203 0 0.58594 0.10938 0.76562 0.32812 0.1875 0.21094 0.28125 0.51172 0.28125 0.90625v1.8281h-0.96875v-1.5625c0.007813-0.019531 0.015625-0.039062 0.015625-0.0625v-0.10938c0-0.21875-0.03125-0.375-0.09375-0.46875s-0.16406-0.14062-0.29688-0.14062c-0.1875 0-0.33594 0.078125-0.4375 0.23438-0.09375 0.14844-0.14062 0.35938-0.14062 0.64062v1.4688h-0.96875v-1.5625c0-0.33203-0.03125-0.54688-0.09375-0.64062-0.054688-0.09375-0.15234-0.14062-0.29688-0.14062-0.17969 0-0.32031 0.078125-0.42188 0.23438-0.09375 0.14844-0.14062 0.35938-0.14062 0.64062v1.4688h-0.96875v-2.9844h0.96875v0.4375c0.11328-0.17578 0.24219-0.30469 0.39062-0.39062 0.15625-0.082031 0.32812-0.125 0.51562-0.125 0.20703 0 0.39062 0.054688 0.54688 0.15625 0.15625 0.09375 0.27344 0.23047 0.35938 0.40625z"/>
  </symbol>
  <symbol id="p" overflow="visible">
   <path d="m3.4688-1.8281v1.8281h-0.96875v-1.3906c0-0.25781-0.007812-0.4375-0.015625-0.53125-0.011719-0.10156-0.03125-0.17578-0.0625-0.21875-0.03125-0.0625-0.085937-0.10938-0.15625-0.14062-0.0625-0.039062-0.13281-0.0625-0.20312-0.0625-0.21094 0-0.37109 0.078125-0.48438 0.23438-0.10547 0.15625-0.15625 0.37109-0.15625 0.64062v1.4688h-0.96875v-4.1562h0.96875v1.6094c0.13281-0.17578 0.28516-0.30469 0.45312-0.39062 0.16406-0.082031 0.34375-0.125 0.53125-0.125 0.34375 0 0.60156 0.10938 0.78125 0.32812 0.1875 0.21094 0.28125 0.51172 0.28125 0.90625z"/>
  </symbol>
  <symbol id="o" overflow="visible">
   <path d="m0.5-3.9844h1.1562l1.4375 2.7344v-2.7344h0.98438v3.9844h-1.1562l-1.4375-2.7344v2.7344h-0.98438z"/>
  </symbol>
  <symbol id="n" overflow="visible">
   <path d="m0.42188-1.1719v-1.8125h0.96875v0.29688 0.60938 0.48438c0 0.24219 0.003906 0.41797 0.015625 0.53125 0.007812 0.10547 0.03125 0.17969 0.0625 0.21875 0.039062 0.0625 0.09375 0.11719 0.15625 0.15625 0.0625 0.03125 0.13281 0.046875 0.21875 0.046875 0.19531 0 0.35156-0.078125 0.46875-0.23438 0.11328-0.15625 0.17188-0.36719 0.17188-0.64062v-1.4688h0.95312v2.9844h-0.95312v-0.4375c-0.14844 0.17969-0.30469 0.30859-0.46875 0.39062-0.15625 0.082031-0.33594 0.125-0.53125 0.125-0.34375 0-0.60938-0.10156-0.79688-0.3125-0.17969-0.21875-0.26562-0.53125-0.26562-0.9375z"/>
  </symbol>
  <symbol id="m" overflow="visible">
   <path d="m3.4688-1.8281v1.8281h-0.96875v-1.3906c0-0.25781-0.007812-0.4375-0.015625-0.53125-0.011719-0.10156-0.03125-0.17578-0.0625-0.21875-0.03125-0.0625-0.085937-0.10938-0.15625-0.14062-0.0625-0.039062-0.13281-0.0625-0.20312-0.0625-0.21094 0-0.37109 0.078125-0.48438 0.23438-0.10547 0.15625-0.15625 0.37109-0.15625 0.64062v1.4688h-0.96875v-2.9844h0.96875v0.4375c0.13281-0.17578 0.28516-0.30469 0.45312-0.39062 0.16406-0.082031 0.34375-0.125 0.53125-0.125 0.34375 0 0.60156 0.10938 0.78125 0.32812 0.1875 0.21094 0.28125 0.51172 0.28125 0.90625z"/>
  </symbol>
  <symbol id="l" overflow="visible">
   <path d="m0.5-3.9844h1.7031c0.50781 0 0.89844 0.11719 1.1719 0.34375 0.26953 0.21875 0.40625 0.53906 0.40625 0.95312 0 0.41797-0.13672 0.74219-0.40625 0.96875-0.27344 0.21875-0.66406 0.32812-1.1719 0.32812h-0.67188v1.3906h-1.0312zm1.0312 0.75v1.1094h0.5625c0.19531 0 0.34766-0.046875 0.45312-0.14062 0.11328-0.10156 0.17188-0.24219 0.17188-0.42188 0-0.17578-0.058594-0.3125-0.17188-0.40625-0.10547-0.09375-0.25781-0.14062-0.45312-0.14062z"/>
  </symbol>
  <symbol id="k" overflow="visible">
   <path d="m0.45312-2.9844h0.96875v2.9375c0 0.39453-0.10156 0.69531-0.29688 0.90625-0.1875 0.21875-0.46484 0.32812-0.82812 0.32812h-0.48438v-0.64062h0.17188c0.17578 0 0.29688-0.042969 0.35938-0.125 0.070312-0.074219 0.10938-0.23047 0.10938-0.46875zm0-1.1719h0.96875v0.78125h-0.96875z"/>
  </symbol>
  <symbol id="j" overflow="visible">
   <path d="m2.875-2.8906v0.76562c-0.125-0.082031-0.25781-0.14453-0.39062-0.1875-0.13672-0.039062-0.27344-0.0625-0.40625-0.0625-0.27344 0-0.48047 0.078125-0.625 0.23438-0.14844 0.15625-0.21875 0.37109-0.21875 0.64062 0 0.28125 0.070313 0.5 0.21875 0.65625 0.14453 0.15625 0.35156 0.23438 0.625 0.23438 0.14453 0 0.28516-0.019531 0.42188-0.0625 0.13281-0.039063 0.25781-0.10938 0.375-0.20312v0.78125c-0.14844 0.0625-0.29688 0.10156-0.45312 0.125-0.15625 0.03125-0.3125 0.046875-0.46875 0.046875-0.54297 0-0.96484-0.13281-1.2656-0.40625-0.30469-0.28125-0.45312-0.67188-0.45312-1.1719 0-0.48828 0.14844-0.86719 0.45312-1.1406 0.30078-0.28125 0.72266-0.42188 1.2656-0.42188 0.15625 0 0.3125 0.015625 0.46875 0.046875 0.15625 0.023437 0.30469 0.0625 0.45312 0.125z"/>
  </symbol>
 </defs>
 <g>
  <path d="m471.13 531.56c-1.5664-3.4648-2.8828-7.0508-3.9141-10.801l-0.082032-0.25c-1.7344-6.4336-2.6211-13.277-2.4961-20.328 0.33203-20.078 8.8008-38.176 22.203-51.121 13.359-12.906 31.707-20.738 51.781-20.41 8.9297 0.16406 17.441 1.8984 25.277 4.9492 4.7812 1.8555 9.2969 4.2461 13.523 7.0508v-63c-2.3516-0.74219-4.7031-1.4414-7.0938-2.0625-3.4414-0.90625-7.0078-1.6914-10.637-2.3086-2.1211-0.37109-3.8516-2.1016-4.1406-4.3281l-6.207-46.797-17.793-0.28906-7.8125 46.551c-0.34766 2.1445-2.0625 3.875-4.3086 4.1641-4.5742 0.66016-9.0898 1.5273-13.543 2.6406-4.4961 1.1133-8.9492 2.4727-13.277 4.082-2.0195 0.69922-4.3672 0.082031-5.7305-1.6914l-28.777-37.438-15.543 8.6602 16.367 43.867c1.0078 2.1016 0.45312 4.6602-1.4414 6.1406-3.7148 2.8867-7.1953 5.9375-10.453 9.0703-3.2773 3.1758-6.4531 6.5547-9.4375 10.141-1.3828 1.6484-3.7109 2.2695-5.793 1.4414l-43.684-18.059-9.1523 15.254 36.137 29.766c1.875 1.3203 2.6836 3.8359 1.7734 6.0625-1.7305 4.2461-3.2578 8.6562-4.5156 13.109-1.2539 4.4141-2.2891 8.9062-3.0703 13.484-0.37109 2.1016-2.1016 3.8359-4.3516 4.125l-46.777 6.2266-0.33203 17.812 46.59 7.793c2.1211 0.37109 3.875 2.0625 4.1641 4.332 0.37109 2.7188 0.82422 5.4023 1.3633 7.9961 0.28906 1.3594 0.57422 2.7227 0.92578 4.168l60.258-0.007812zm106.29-78.379c-5.0938-4.2461-10.887-7.668-17.191-10.141-6.7812-2.6367-14.121-4.1641-21.77-4.2891-17.293-0.28906-33.109 6.4727-44.633 17.605s-18.82 26.676-19.109 43.992c-0.085938 5.9766 0.66016 11.875 2.1836 17.48l0.0625 0.20703c1.3008 4.7812 3.1562 9.2734 5.4609 13.523h94.996zm-97.672-290.09h90.5l-90.5-90.5zm97.672 10.145h-102.75c-2.8047 0-5.0703-2.2656-5.0703-5.0703v-102.75h-2.6367l-291.33-0.042969v466.18h224.86l-0.45312-2.1836-0.90625-4.9453-47.246-7.918c-2.5977-0.41406-4.4141-2.7617-4.207-5.3594l0.45312-26.223c0.042969-2.5156 1.9375-4.5781 4.3906-4.9062l47.457-6.3086c0.74219-3.668 1.625-7.2969 2.6367-10.844 1.0312-3.6289 2.207-7.2148 3.5273-10.68l-36.965-30.469c-1.957-1.6094-2.3672-4.4102-1.1328-6.5156l13.648-22.676c1.3008-2.1836 4.0195-3.0508 6.3125-2.0625l44.238 18.262c2.4727-2.7617 5.0703-5.4844 7.793-8.1211 2.6992-2.5977 5.4805-5.0703 8.3242-7.4219l-16.777-44.898c-0.86719-2.3906 0.12109-4.9883 2.2695-6.1836l23.129-12.863c2.2266-1.1953 4.9453-0.61719 6.4531 1.3594l29.211 37.973c3.5469-1.1953 7.1758-2.2656 10.824-3.1758 3.5664-0.90625 7.1914-1.6484 10.906-2.2656l7.9141-47.207c0.43359-2.5977 2.7812-4.4102 5.3594-4.207l26.203 0.41406c2.5352 0.042969 4.5977 1.9375 4.9297 4.4141l6.2852 47.457c2.6172 0.53516 5.2344 1.1133 7.8125 1.8125 1.5273 0.37109 3.0508 0.82422 4.5352 1.2773zm-411.92 329.38v-442.52l0.039062-0.25 0.0625-0.53516h0.023438c0.45312-2.3086 2.4961-4.0391 4.9492-4.0391l290.25 0.039062-0.078125-9.6055h-10l-302.82 0.003906v456.9l17.566 0.003906zm-27.707-17.273v-444.95l0.039062-0.25 0.066407-0.49609h0.019531c0.45312-2.3086 2.4961-4.082 4.9492-4.082h301.86l-0.0625-7.0898-322.09-0.039063v456.9zm192.27-181.74c-5.2344-5.4023-12.551-8.8203-20.656-8.9453-8.1211-0.16406-15.566 3.0117-20.965 8.2461-5.4023 5.2344-8.8203 12.535-8.9648 20.656-0.14453 8.125 3.0273 15.586 8.2695 20.988 5.2344 5.4023 12.531 8.8203 20.656 8.9453 8.1211 0.16406 15.543-3.0117 20.965-8.2461 5.4219-5.2344 8.8438-12.535 8.9648-20.656 0.14453-8.1211-3.0312-15.543-8.2695-20.988zm-20.508-19.047c10.926 0.16406 20.758 4.7812 27.785 12.039 7.0117 7.2969 11.254 17.234 11.09 28.16-0.18359 10.883-4.7812 20.738-12.055 27.746-7.2773 7.0078-17.215 11.254-28.141 11.09-10.906-0.16406-20.738-4.7812-27.75-12.039-7.0273-7.2578-11.273-17.234-11.09-28.16 0.16406-10.883 4.7812-20.738 12.039-27.746 7.2578-7.0078 17.234-11.254 28.121-11.09zm-89.508 38.016-0.042969 2.3945 21.602 3.625c2.2695 0.37109 3.918 2.1836 4.1875 4.3711 0.30859 2.2266 0.74219 4.4102 1.2539 6.5547 0.55859 2.1836 1.2344 4.3711 2.0234 6.5156 0.80078 2.2266-0.042968 4.6602-1.918 5.9375l-17.133 13.152 2.3281 4.1641 20.551-7.668c2.1016-0.78125 4.4141-0.082032 5.7305 1.6094 1.3828 1.7734 2.8867 3.5039 4.4766 5.1562 1.5859 1.6484 3.2344 3.1758 4.9258 4.6172 1.7344 1.4453 2.2695 3.793 1.4414 5.7734l-8.3672 20.285 4.125 2.4727 13.934-16.902c1.4258-1.7344 3.7969-2.2695 5.7734-1.4844 2.0859 0.82422 4.25 1.6094 6.3906 2.2266 2.1836 0.61719 4.4102 1.1133 6.6367 1.4844 2.3125 0.41406 4 2.3086 4.1875 4.5781l2.8633 21.48 4.7812 0.082032 3.6094-21.605c0.36719-2.2266 2.1641-3.875 4.2891-4.1641 2.2891-0.33203 4.5156-0.78516 6.6602-1.3203 2.2266-0.53516 4.4102-1.2383 6.5156-1.9805 2.1641-0.78516 4.5352 0 5.8125 1.8125l13.277 17.234 4.1641-2.3477-7.668-20.531c-0.78125-2.1016-0.0625-4.4102 1.6289-5.7305 1.8359-1.4414 3.5469-2.9258 5.1133-4.4531 1.625-1.5703 3.1758-3.2578 4.6367-4.9883 1.5039-1.8164 4.043-2.2656 6.0586-1.2773l20 8.2461 2.4531-4.125-16.887-13.934c-1.75-1.4414-2.2891-3.793-1.4844-5.7734 0.84766-2.1445 1.5898-4.2891 2.2305-6.4297 0.61719-2.1836 1.1133-4.3711 1.4805-6.5977 0.41406-2.3086 2.3086-4 4.5547-4.207l21.48-2.8438 0.085938-4.7812-21.586-3.6289c-2.2695-0.37109-3.9375-2.2266-4.207-4.3711-0.28906-2.2266-0.74219-4.4102-1.2539-6.5547-0.55859-2.1836-1.2383-4.3711-2-6.5156-0.82422-2.1836 0.019531-4.6172 1.8945-5.8945l17.133-13.195-2.3281-4.1641-20.531 7.668c-2.1016 0.78516-4.4141 0.082031-5.7305-1.6484-1.3828-1.7344-2.8867-3.4609-4.4336-5.0703-1.5898-1.6094-3.2578-3.1758-5.0078-4.6602-1.8164-1.5273-2.2852-4.0391-1.2969-6.0586l8.2461-19.996-4.1055-2.4727-13.934 16.906c-1.4453 1.7305-3.793 2.2656-5.793 1.4805-2.1016-0.86328-4.2695-1.6055-6.4141-2.2266-2.1836-0.61719-4.3672-1.1133-6.5938-1.4844-2.3477-0.41406-4-2.3086-4.207-4.5781l-2.8438-21.48-4.7812-0.082031-3.625 21.605c-0.37109 2.2695-2.2266 3.957-4.4102 4.207-2.207 0.28906-4.4141 0.74219-6.5547 1.2773-2.1445 0.53516-4.3086 1.1953-6.4766 1.9805-2.2031 0.82422-4.6367-0.042969-5.9141-1.8945l-13.172-17.152-4.1836 2.3477 7.6875 20.531c0.78125 2.1016 0.066406 4.4102-1.6484 5.7305-1.7539 1.3594-3.4609 2.8867-5.0703 4.4531-1.6328 1.5664-3.1953 3.2148-4.6602 4.9883-1.5273 1.8125-4.043 2.2656-6.082 1.2773l-19.977-8.2461-2.4766 4.125 16.906 13.938c1.7305 1.4414 2.2695 3.793 1.4609 5.7695-0.84375 2.1016-1.5859 4.2891-2.2031 6.4336-0.61719 2.1836-1.1133 4.3711-1.5039 6.5977-0.39062 2.3086-2.3125 4-4.5547 4.207l-21.48 2.8477zm159.68-123.73v-76.027h10.102v76.027zm-62.465-39.91h19.668c6.5156 0 11.109-1.2383 13.852-3.625 2.7188-2.4336 4.0781-5.8555 4.0781-10.266 0-3.1328-0.78125-5.8945-2.3906-8.1641-1.6289-2.2266-3.7539-3.7539-6.3477-4.4961-1.7109-0.41406-4.8438-0.66016-9.4023-0.66016h-19.461zm-10.078 39.91v-76.027h28.715c5.0273 0 8.9062 0.24609 11.566 0.69922 3.7305 0.61719 6.8633 1.8164 9.3984 3.5469 2.5312 1.7734 4.5781 4.207 6.1211 7.3398 1.5234 3.1328 2.2891 6.5977 2.2891 10.348 0 6.4336-2.043 11.918-6.1641 16.367-4.125 4.4961-11.566 6.7227-22.324 6.7227h-19.523v31.004zm-57.289-31.211h25.895l-7.918-21.07c-2.3906-6.4336-4.2031-11.711-5.4375-15.914-1.0508 4.9883-2.4531 9.8555-4.207 14.676zm-21.891 31.211 29.168-76.027h11.07l30.965 76.027h-11.461l-8.7812-23.047h-32.035l-8.2461 23.047z" fill-rule="evenodd"/>
  <use x="70" y="576.40625" xlink:href="#t"/>
  <use x="74.011719" y="576.40625" xlink:href="#c"/>
  <use x="76.710938" y="576.40625" xlink:href="#b"/>
  <use x="80.417969" y="576.40625" xlink:href="#d"/>
  <use x="84.109375" y="576.40625" xlink:href="#a"/>
  <use x="86.722656" y="576.40625" xlink:href="#b"/>
  <use x="90.433594" y="576.40625" xlink:href="#i"/>
  <use x="96.25" y="576.40625" xlink:href="#h"/>
  <use x="100.167969" y="576.40625" xlink:href="#g"/>
  <use x="105.636719" y="576.40625" xlink:href="#f"/>
  <use x="109.371094" y="576.40625" xlink:href="#s"/>
  <use x="111.246094" y="576.40625" xlink:href="#d"/>
  <use x="114.9375" y="576.40625" xlink:href="#a"/>
  <use x="117.550781" y="576.40625" xlink:href="#d"/>
  <use x="121.238281" y="576.40625" xlink:href="#c"/>
  <use x="123.9375" y="576.40625" xlink:href="#a"/>
  <use x="70" y="581.875" xlink:href="#r"/>
  <use x="72.378906" y="581.875" xlink:href="#c"/>
  <use x="75.078125" y="581.875" xlink:href="#e"/>
  <use x="78.832031" y="581.875" xlink:href="#q"/>
  <use x="86.4375" y="581.875" xlink:href="#a"/>
  <use x="89.050781" y="581.875" xlink:href="#p"/>
  <use x="92.941406" y="581.875" xlink:href="#b"/>
  <use x="98.554688" y="581.875" xlink:href="#o"/>
  <use x="103.132812" y="581.875" xlink:href="#e"/>
  <use x="106.890625" y="581.875" xlink:href="#n"/>
  <use x="110.785156" y="581.875" xlink:href="#m"/>
  <use x="116.582031" y="581.875" xlink:href="#l"/>
  <use x="120.589844" y="581.875" xlink:href="#c"/>
  <use x="123.285156" y="581.875" xlink:href="#e"/>
  <use x="127.042969" y="581.875" xlink:href="#k"/>
  <use x="128.917969" y="581.875" xlink:href="#b"/>
  <use x="132.625" y="581.875" xlink:href="#j"/>
  <use x="135.867188" y="581.875" xlink:href="#a"/>
 </g>
</svg>
